<svg width="502" height="165" viewBox="0 0 502 165" fill="none" xmlns="http://www.w3.org/2000/svg">
<path d="M241.228 115.965V77.9962C241.228 71.4436 239.645 66.4619 236.478 63.0509C233.31 59.64 228.333 57.9345 221.546 57.9345C216.931 57.9345 213.266 58.3833 210.551 59.281C207.837 60.0888 206.117 60.6723 205.393 61.0313V115.965H191.412V52.1449C191.774 51.9654 192.77 51.5615 194.398 50.9332C196.027 50.3048 198.199 49.6316 200.914 48.9135C203.629 48.1954 206.796 47.5671 210.416 47.0286C214.035 46.49 218.017 46.2207 222.361 46.2207C227.338 46.2207 231.862 46.8939 235.935 48.2403C240.007 49.497 243.445 51.3371 246.251 53.7606C249.147 56.1842 251.364 59.1014 252.902 62.5124C254.44 65.9233 255.21 69.783 255.21 74.0916V115.965H241.228Z" fill="black"/>
<path d="M346.129 82.1701C346.129 87.2865 345.224 92.0438 343.415 96.4421C341.695 100.84 339.252 104.655 336.085 107.887C332.917 111.028 329.117 113.542 324.683 115.427C320.248 117.222 315.362 118.119 310.023 118.119C304.684 118.119 299.752 117.222 295.227 115.427C290.793 113.542 286.992 111.028 283.825 107.887C280.658 104.655 278.169 100.84 276.359 96.4421C274.64 92.0438 273.78 87.2865 273.78 82.1701C273.78 77.0537 274.64 72.2963 276.359 67.898C278.169 63.4997 280.658 59.7298 283.825 56.5881C286.992 53.3567 290.793 50.8434 295.227 49.0482C299.752 47.1632 304.684 46.2207 310.023 46.2207C315.362 46.2207 320.248 47.1632 324.683 49.0482C329.117 50.8434 332.917 53.3567 336.085 56.5881C339.252 59.7298 341.695 63.4997 343.415 67.898C345.224 72.2963 346.129 77.0537 346.129 82.1701ZM331.605 82.1701C331.605 78.5796 331.108 75.3033 330.112 72.3412C329.117 69.2893 327.669 66.6863 325.768 64.532C323.959 62.288 321.696 60.5825 318.981 59.4156C316.357 58.1589 313.371 57.5306 310.023 57.5306C306.584 57.5306 303.507 58.1589 300.792 59.4156C298.168 60.5825 295.906 62.288 294.005 64.532C292.196 66.6863 290.793 69.2893 289.798 72.3412C288.802 75.3033 288.304 78.5796 288.304 82.1701C288.304 85.7605 288.802 89.0817 289.798 92.1336C290.793 95.0957 292.196 97.6988 294.005 99.9428C295.906 102.097 298.168 103.803 300.792 105.059C303.507 106.226 306.584 106.81 310.023 106.81C313.371 106.81 316.357 106.226 318.981 105.059C321.696 103.803 323.959 102.097 325.768 99.9428C327.669 97.6988 329.117 95.0957 330.112 92.1336C331.108 89.0817 331.605 85.7605 331.605 82.1701Z" fill="black"/>
<path d="M427.373 51.3371C426.83 53.3118 425.88 55.9598 424.523 59.281C423.256 62.5124 421.763 66.1477 420.044 70.187C418.324 74.2262 416.424 78.4899 414.343 82.9779C412.352 87.3762 410.316 91.6848 408.234 95.9035C406.243 100.033 404.298 103.937 402.397 107.617C400.588 111.208 399.004 114.215 397.647 116.638H383.122C381.494 113.766 379.774 110.624 377.964 107.213C376.245 103.713 374.48 100.212 372.671 96.7114C370.951 93.1209 369.277 89.5754 367.648 86.0747C366.019 82.574 364.481 79.3426 363.033 76.3805C361.676 73.3286 360.454 70.6358 359.368 68.302C358.373 65.9682 357.604 64.1729 357.061 62.9163C356.518 61.6596 355.975 60.3132 355.432 58.877C354.889 57.4409 354.617 56.0944 354.617 54.8378C354.617 53.2221 355.16 51.741 356.246 50.3946C357.332 49.0482 359.187 48.375 361.811 48.375C363.621 48.375 365.024 48.5545 366.019 48.9135C367.015 49.2726 367.558 49.497 367.648 49.5867C369.187 53.8055 370.951 58.4282 372.942 63.4549C375.023 68.4815 377.105 73.4632 379.186 78.4001C381.358 83.2472 383.439 87.9148 385.43 92.4029C387.421 96.8012 389.186 100.526 390.724 103.578C391.81 101.514 393.212 98.5964 394.932 94.8264C396.742 90.9667 398.597 86.7479 400.497 82.1701C402.488 77.5923 404.479 72.8798 406.47 68.0327C408.46 63.1856 410.225 58.7424 411.763 54.7031C412.487 52.7284 413.392 51.2024 414.478 50.1253C415.564 48.9584 417.374 48.375 419.908 48.375C422.08 48.375 423.799 48.7789 425.066 49.5867C426.423 50.3946 427.192 50.978 427.373 51.3371Z" fill="black"/>
<path d="M488.019 54.7031C488.019 52.5489 488.653 50.978 489.92 49.9907C491.186 48.9135 492.996 48.375 495.349 48.375C496.887 48.375 498.245 48.5545 499.421 48.9135C500.688 49.2726 501.548 49.5419 502 49.7214V115.965C501.367 116.145 500.236 116.324 498.607 116.504C497.068 116.683 495.168 116.863 492.906 117.042C490.643 117.312 488.155 117.491 485.44 117.581C482.725 117.76 479.965 117.85 477.16 117.85C468.925 117.85 462.229 116.863 457.071 114.888C452.003 112.913 447.976 110.041 444.99 106.271C441.28 101.514 439.425 95.1855 439.425 87.2865V54.7031C439.425 52.5489 440.058 50.978 441.325 49.9907C442.592 48.9135 444.402 48.375 446.754 48.375C448.293 48.375 449.65 48.5545 450.827 48.9135C452.094 49.2726 452.953 49.5419 453.406 49.7214V85.8054C453.406 92.6273 455.125 97.7436 458.564 101.155C462.093 104.566 468.02 106.271 476.346 106.271C479.513 106.271 482.047 106.181 483.947 106.002C485.938 105.732 487.295 105.508 488.019 105.328V54.7031Z" fill="black"/>
<path fill-rule="evenodd" clip-rule="evenodd" d="M127.548 65.8682C127.548 70.2865 122.141 72.4743 119.027 69.3161L55.2623 4.6593C63.8843 1.6417 73.1607 0 82.8235 0C99.2977 0 114.649 4.77188 127.548 12.9984V65.8682ZM150.739 35.1265V65.8682C150.739 90.9053 120.1 103.303 102.451 85.4065L33.8794 15.8756C13.3364 30.829 0 54.9544 0 82.17C0 99.6672 5.5124 115.887 14.9082 129.214V98.6361C14.9082 73.599 45.5474 61.2018 63.1964 79.0978L131.673 148.533C152.27 133.585 165.647 109.427 165.647 82.17C165.647 64.6728 160.135 48.4529 150.739 35.1265ZM46.6203 95.1882L110.264 159.723C101.676 162.714 92.4414 164.34 82.8235 164.34C66.3493 164.34 50.9985 159.568 38.0988 151.342V98.6361C38.0988 94.2178 43.5057 92.0301 46.6203 95.1882Z" fill="url(#paint0_radial_2040_25179)"/>
<path fill-rule="evenodd" clip-rule="evenodd" d="M127.548 65.8682C127.548 70.2865 122.141 72.4743 119.027 69.3161L55.2623 4.6593C63.8843 1.6417 73.1607 0 82.8235 0C99.2977 0 114.649 4.77188 127.548 12.9984V65.8682ZM150.739 35.1265V65.8682C150.739 90.9053 120.1 103.303 102.451 85.4065L33.8794 15.8756C13.3364 30.829 0 54.9544 0 82.17C0 99.6672 5.5124 115.887 14.9082 129.214V98.6361C14.9082 73.599 45.5474 61.2018 63.1964 79.0978L131.673 148.533C152.27 133.585 165.647 109.427 165.647 82.17C165.647 64.6728 160.135 48.4529 150.739 35.1265ZM46.6203 95.1882L110.264 159.723C101.676 162.714 92.4414 164.34 82.8235 164.34C66.3493 164.34 50.9985 159.568 38.0988 151.342V98.6361C38.0988 94.2178 43.5057 92.0301 46.6203 95.1882Z" fill="url(#paint1_linear_2040_25179)"/>
<path fill-rule="evenodd" clip-rule="evenodd" d="M127.548 65.8682C127.548 70.2865 122.141 72.4743 119.027 69.3161L55.2623 4.6593C63.8843 1.6417 73.1607 0 82.8235 0C99.2977 0 114.649 4.77188 127.548 12.9984V65.8682ZM150.739 35.1265V65.8682C150.739 90.9053 120.1 103.303 102.451 85.4065L33.8794 15.8756C13.3364 30.829 0 54.9544 0 82.17C0 99.6672 5.5124 115.887 14.9082 129.214V98.6361C14.9082 73.599 45.5474 61.2018 63.1964 79.0978L131.673 148.533C152.27 133.585 165.647 109.427 165.647 82.17C165.647 64.6728 160.135 48.4529 150.739 35.1265ZM46.6203 95.1882L110.264 159.723C101.676 162.714 92.4414 164.34 82.8235 164.34C66.3493 164.34 50.9985 159.568 38.0988 151.342V98.6361C38.0988 94.2178 43.5057 92.0301 46.6203 95.1882Z" fill="url(#paint2_linear_2040_25179)"/>
<defs>
<radialGradient id="paint0_radial_2040_25179" cx="0" cy="0" r="1" gradientUnits="userSpaceOnUse" gradientTransform="translate(82.8235 82.17) rotate(135.227) scale(116.669 116.665)">
<stop offset="0.34" stop-color="#FF006A"/>
<stop offset="0.613333" stop-color="#E300BD"/>
<stop offset="0.766667" stop-color="#FF4CE1"/>
</radialGradient>
<linearGradient id="paint1_linear_2040_25179" x1="102.149" y1="-5.478" x2="83.1235" y2="164.374" gradientUnits="userSpaceOnUse">
<stop offset="0.0851785" stop-color="#FFBA33"/>
<stop offset="0.553333" stop-color="#FF006A" stop-opacity="0"/>
</linearGradient>
<linearGradient id="paint2_linear_2040_25179" x1="82.8235" y1="0" x2="82.8235" y2="164.34" gradientUnits="userSpaceOnUse">
<stop offset="0.546667" stop-opacity="0"/>
<stop offset="1" stop-opacity="0.6"/>
</linearGradient>
</defs>
</svg>
