<svg xmlns="http://www.w3.org/2000/svg" xmlns:xlink="http://www.w3.org/1999/xlink" width="500" zoomAndPan="magnify" viewBox="0 0 375 374.999991" height="500" preserveAspectRatio="xMidYMid meet" version="1.0"><rect x="-37.5" width="450" fill="#ffffff" y="-37.499999" height="449.999989" fill-opacity="1"/><rect x="-37.5" width="450" fill="#d8f2e4" y="-37.499999" height="449.999989" fill-opacity="1"/><path fill="#0e121b" d="M 264.96875 227.066406 C 266.3125 223.832031 270.542969 223.628906 272.246094 226.460938 L 272.550781 227.066406 L 275.519531 234.230469 C 280.769531 246.886719 290.5625 257.011719 302.898438 262.488281 L 302.898438 262.484375 L 311.308594 266.222656 C 314.433594 267.613281 314.628906 272.003906 311.894531 273.769531 L 311.308594 274.082031 L 302.398438 278.046875 C 290.75 283.222656 281.351562 292.539062 275.921875 304.246094 L 275.410156 305.386719 L 272.515625 312.015625 C 271.144531 315.160156 267.023438 315.355469 265.308594 312.605469 L 265 312.015625 L 262.109375 305.386719 C 256.933594 293.527344 247.742188 284 236.238281 278.558594 L 235.117188 278.046875 L 226.207031 274.082031 C 223.085938 272.695312 222.890625 268.308594 225.621094 266.542969 L 226.207031 266.222656 L 234.621094 262.488281 C 246.566406 257.179688 256.136719 247.515625 261.492188 235.410156 L 262 234.230469 Z M 152.476562 66.535156 C 155.601562 59.003906 165.730469 58.765625 169.292969 65.828125 L 169.613281 66.535156 L 180.03125 91.636719 C 188.921875 113.058594 205.257812 130.308594 225.84375 140.054688 L 227.847656 140.972656 L 255.273438 153.144531 C 262.554688 156.378906 262.78125 166.789062 255.957031 170.46875 L 255.273438 170.800781 L 226.964844 183.367188 C 206.636719 192.394531 190.21875 208.664062 180.726562 229.113281 L 179.828125 231.105469 L 169.542969 254.660156 C 166.347656 261.976562 156.488281 262.207031 152.875 255.347656 L 152.546875 254.660156 L 142.257812 231.105469 C 133.214844 210.390625 117.152344 193.75 97.078125 184.261719 L 95.125 183.367188 L 66.816406 170.800781 C 59.535156 167.570312 59.308594 157.164062 66.132812 153.484375 L 66.816406 153.144531 L 94.242188 140.972656 C 115.09375 131.714844 131.808594 114.847656 141.175781 93.699219 L 142.058594 91.636719 Z M 152.476562 66.535156 " fill-opacity="1" fill-rule="nonzero"/><path stroke-linecap="butt" transform="matrix(3.75, 0, 0, 3.75, 0.0000045, 0)" fill-opacity="1" fill="#77db89" fill-rule="nonzero" stroke-linejoin="miter" d="M 70.658337 60.551046 C 71.01667 59.688546 72.144795 59.634379 72.598962 60.389587 L 72.680212 60.551046 L 73.471879 62.461462 C 74.871879 65.836463 77.483337 68.536463 80.772921 69.99688 L 80.772921 69.995838 L 83.015629 70.992713 C 83.848963 71.363546 83.901046 72.53438 83.171879 73.005213 L 83.015629 73.088546 L 80.639587 74.145838 C 77.533337 75.526047 75.027087 78.010422 73.57917 81.132297 L 73.442712 81.436464 L 72.670837 83.204172 C 72.305212 84.042714 71.206253 84.094797 70.748962 83.361464 L 70.66667 83.204172 L 69.895837 81.436464 C 68.515628 78.273963 66.064586 75.733338 62.996878 74.282297 L 62.69792 74.145838 L 60.321878 73.088546 C 59.489586 72.718755 59.437503 71.548963 60.165628 71.07813 L 60.321878 70.992713 L 62.565628 69.99688 C 65.751045 68.581255 68.303128 66.004171 69.731253 62.776046 L 69.86667 62.461462 Z M 40.660418 17.742709 C 41.493752 15.734376 44.194793 15.670834 45.144793 17.554168 L 45.23021 17.742709 L 48.008335 24.43646 C 50.379169 30.14896 54.735419 34.748961 60.225003 37.347919 L 60.759378 37.592711 L 68.07292 40.838544 C 70.014587 41.701044 70.075003 44.477086 68.255212 45.458336 L 68.07292 45.546878 L 60.523961 48.89792 C 55.103127 51.305212 50.725002 55.643754 48.193752 61.096879 L 47.954169 61.628129 L 45.21146 67.909379 C 44.359377 69.860421 41.73021 69.92188 40.766668 68.092713 L 40.679168 67.909379 L 37.935418 61.628129 C 35.523959 56.10417 31.240626 51.66667 25.8875 49.136462 L 25.366667 48.89792 L 17.817708 45.546878 C 15.876042 44.68542 15.815625 41.910419 17.635417 40.929169 L 17.817708 40.838544 L 25.13125 37.592711 C 30.691667 35.123961 35.148959 30.626044 37.646876 24.98646 L 37.882293 24.43646 Z M 40.660418 17.742709 " stroke="#5ec269" stroke-width="1" stroke-opacity="1" stroke-miterlimit="4"/></svg>