<svg width="24" height="24" viewBox="0 0 24 24" fill="none" xmlns="http://www.w3.org/2000/svg">
<path d="M15.7505 3.90601L16.7396 5.76062L18.5942 6.74976L16.7396 7.73889L15.7505 9.5935L14.7613 7.73889L12.9067 6.74976L14.7613 5.76062L15.7505 3.90601ZM9.00049 6.24976L11.0005 9.99976L14.7505 11.9998L11.0005 13.9997L9.00049 17.7497L7.00049 13.9997L3.25049 11.9998L7.00049 9.99976L9.00049 6.24976ZM17.7505 15.2497L16.5005 12.906L15.2505 15.2497L12.9067 16.4998L15.2505 17.7497L16.5005 20.0935L17.7505 17.7497L20.0942 16.4998L17.7505 15.2497Z" fill="url(#paint0_linear_1_2652)"/>
<defs>
<linearGradient id="paint0_linear_1_2652" x1="20.0942" y1="3.90601" x2="3.91954" y2="20.7365" gradientUnits="userSpaceOnUse">
<stop offset="0.231667" stop-color="#FF884D"/>
<stop offset="0.801667" stop-color="#E300BD"/>
</linearGradient>
</defs>
</svg>
